<?xml version="1.0" encoding="UTF-8"?>
<svg id="Capa_2" data-name="Capa 2" xmlns="http://www.w3.org/2000/svg" viewBox="0 0 973.18 1080">
  <defs>
    <style>
      .cls-1 {
        fill: #fff;
      }
    </style>
  </defs>
  <g id="Capa_1-2" data-name="Capa 1">
    <g>
      <path class="cls-1" d="m486.65,331.66v16.71-10.68,420.98c0,116.82,54.89,185.7,166.85,185.7s164.69-68.89,164.69-168.99v-426.26h155v430.56c0,178.68-102.25,300.31-319.69,300.31s-321.85-122.71-321.85-299.23v-294.11c0-85.6,69.39-155,155-155Z"/>
      <path class="cls-1" d="m486.65,174.98c-172.14,0-311.68,139.54-311.68,311.67h89.53c0-122.69,99.47-222.14,222.16-222.14v-89.53Z"/>
      <path class="cls-1" d="m486.65,104.68V0C217.88,0,0,217.88,0,486.65h104.68c0-210.96,171.01-381.98,381.98-381.98Z"/>
    </g>
  </g>
</svg>